<svg id="Layer_1" xmlns="http://www.w3.org/2000/svg" xmlns:xlink="http://www.w3.org/1999/xlink" viewBox="0 0 200.1 252.9"><defs><linearGradient id="linear-gradient" x1="99.5" y1="202.07" x2="127.43" y2="202.07" gradientTransform="rotate(-14.35 -77.77 138.61)" gradientUnits="userSpaceOnUse"><stop offset=".23" stop-color="#4a231a"/><stop offset="1" stop-color="#653023"/></linearGradient><linearGradient id="linear-gradient-2" x1="82.79" y1="186.93" x2="82.04" y2="145.04" gradientUnits="userSpaceOnUse"><stop offset="0" stop-color="#4a231a"/><stop offset=".41" stop-color="#4d241b"/><stop offset=".75" stop-color="#57291e"/><stop offset="1" stop-color="#653023"/></linearGradient><linearGradient id="linear-gradient-3" x1="102.22" y1="210.93" x2="96.76" y2="105.01" gradientUnits="userSpaceOnUse"><stop offset="0" stop-color="#f5f5f5"/><stop offset=".64" stop-color="#efefef"/><stop offset="1" stop-color="#e9e9e9"/></linearGradient><linearGradient id="linear-gradient-4" x1="131.65" y1="116.95" x2="109.11" y2="181.51" gradientUnits="userSpaceOnUse"><stop offset="0" stop-color="#f0c999"/><stop offset=".52" stop-color="#f1cb9b"/><stop offset=".85" stop-color="#f4d3a4"/><stop offset="1" stop-color="#f7d9ab"/></linearGradient><linearGradient id="linear-gradient-5" x1="240.27" y1="137.12" x2="228.61" y2="121.79" gradientTransform="matrix(.75986 .12457 -.13751 .8388 -33.04 46.09)" gradientUnits="userSpaceOnUse"><stop offset="0" stop-color="#feddb3"/><stop offset=".68" stop-color="#fbdbb0"/><stop offset="1" stop-color="#f7d9ab"/></linearGradient><linearGradient id="linear-gradient-6" x1="54.14" y1="185.38" x2="85.8" y2="185.38" gradientTransform="rotate(-.62 166.207 -145.115)" xlink:href="#linear-gradient-5"/><linearGradient id="linear-gradient-7" x1="187.64" y1="-61.51" x2="185.16" y2="-82.43" gradientTransform="rotate(9.9 -1399.573 -437.677)" xlink:href="#linear-gradient-4"/><linearGradient id="linear-gradient-8" x1="113.5" y1="95.53" x2="91.4" y2="248.27" xlink:href="#linear-gradient-4"/><linearGradient id="linear-gradient-9" x1="131.07" y1="174.67" x2="133.76" y2="246.85" xlink:href="#linear-gradient-4"/><linearGradient id="linear-gradient-10" x1="104.47" y1="302.33" x2="99.23" y2="203.51" gradientUnits="userSpaceOnUse"><stop offset="0" stop-color="#f3f3f3"/><stop offset="1" stop-color="#e9e9e9"/></linearGradient><linearGradient id="linear-gradient-11" x1="106.58" y1="256.21" x2="125.14" y2="191.56" xlink:href="#linear-gradient-3"/><linearGradient id="linear-gradient-12" x1="107.74" y1="295.64" x2="103.83" y2="250.72" gradientUnits="userSpaceOnUse"><stop offset="0" stop-color="#e1e1e1"/><stop offset=".77" stop-color="#e3e2e2"/><stop offset="1" stop-color="#e7e6e6"/></linearGradient><linearGradient id="linear-gradient-13" x1="91.18" y1="247.36" x2="76.14" y2="174.51" xlink:href="#linear-gradient-3"/><linearGradient id="linear-gradient-14" x1="98.13" y1="248.91" x2="107.5" y2="329.78" xlink:href="#linear-gradient-12"/><linearGradient id="linear-gradient-15" x1="61.3" y1="174.76" x2="68.9" y2="201.49" gradientUnits="userSpaceOnUse"><stop offset="0" stop-color="#e1e1e1"/><stop offset=".76" stop-color="#e3e3e3"/><stop offset="1" stop-color="#e7e6e6"/></linearGradient><linearGradient id="linear-gradient-16" x1="141.34" y1="176.68" x2="132" y2="197.12" xlink:href="#linear-gradient-15"/><linearGradient id="linear-gradient-17" x1="41.67" y1="173.73" x2="44.66" y2="425.82" gradientUnits="userSpaceOnUse"><stop offset="0" stop-color="#38373b"/><stop offset="1" stop-color="#343337"/></linearGradient><linearGradient id="linear-gradient-18" x1="162.86" y1="172.29" x2="165.85" y2="424.38" xlink:href="#linear-gradient-17"/><linearGradient id="linear-gradient-19" x1="49.71" y1="176.14" x2="15.21" y2="198.31" gradientUnits="userSpaceOnUse"><stop offset="0" stop-color="#3a3a3e"/><stop offset="1" stop-color="#38373b"/></linearGradient><linearGradient id="linear-gradient-20" x1="59.55" y1="173.34" x2="62.54" y2="425.67" xlink:href="#linear-gradient-17"/><linearGradient id="linear-gradient-21" x1="14.11" y1="204.82" x2="10.3" y2="454.9" gradientUnits="userSpaceOnUse"><stop offset="0" stop-color="#3f3e42"/><stop offset=".28" stop-color="#3a393d"/><stop offset="1" stop-color="#343337"/></linearGradient><linearGradient id="linear-gradient-22" x1="196.12" y1="196.32" x2="87.77" y2="154.87" xlink:href="#linear-gradient-19"/><linearGradient id="linear-gradient-23" x1="29.71" y1="334.8" x2="41.99" y2="206.31" gradientUnits="userSpaceOnUse"><stop offset="0" stop-color="#282728"/><stop offset=".29" stop-color="#2c2b2d"/><stop offset="1" stop-color="#343337"/></linearGradient><linearGradient id="linear-gradient-24" x1="71.88" y1="306.04" x2="75.16" y2="124.89" gradientUnits="userSpaceOnUse"><stop offset="0" stop-color="#ddd"/><stop offset=".11" stop-color="#dededd"/><stop offset="1" stop-color="#e4e4e3"/></linearGradient><linearGradient id="linear-gradient-25" x1="129.14" y1="307.16" x2="132.41" y2="126.01" xlink:href="#linear-gradient-24"/><linearGradient id="linear-gradient-26" x1="151.79" y1="318.2" x2="148.52" y2="239.26" gradientUnits="userSpaceOnUse"><stop offset="0" stop-color="#2c2b2e"/><stop offset="1" stop-color="#343337"/></linearGradient><linearGradient id="linear-gradient-27" x1="54.54" y1="322.23" x2="51.26" y2="243.3" xlink:href="#linear-gradient-26"/><linearGradient id="linear-gradient-28" x1="131.95" y1="165.9" x2="144.94" y2="271.63" xlink:href="#linear-gradient-19"/><linearGradient id="linear-gradient-29" x1="50.12" y1="175.65" x2="63.11" y2="281.39" xlink:href="#linear-gradient-19"/><linearGradient id="linear-gradient-30" x1="140.88" y1="173.51" x2="143.85" y2="424.22" xlink:href="#linear-gradient-17"/><linearGradient id="linear-gradient-31" x1="153.47" y1="346.63" x2="165.75" y2="218.14" xlink:href="#linear-gradient-23"/><linearGradient id="linear-gradient-32" x1="190.68" y1="207.88" x2="186.9" y2="456.29" xlink:href="#linear-gradient-21"/><linearGradient id="linear-gradient-33" x1="46.4" y1="209.97" x2="76.78" y2="175.96" xlink:href="#linear-gradient-17"/><linearGradient id="linear-gradient-34" x1="952.95" y1="207.1" x2="984.88" y2="171.34" gradientTransform="matrix(-1 0 0 1 1105.14 0)" xlink:href="#linear-gradient-17"/><linearGradient id="linear-gradient-35" x1="67.36" y1="212.77" x2="61.89" y2="106.76" xlink:href="#linear-gradient-3"/><linearGradient id="linear-gradient-36" x1="119.38" y1="144.83" x2="137.86" y2="144.83" gradientUnits="userSpaceOnUse"><stop offset="0" stop-color="#4f251b"/><stop offset=".39" stop-color="#592a21"/><stop offset="1" stop-color="#733930"/></linearGradient><linearGradient id="linear-gradient-37" x1="133.73" y1="209.34" x2="128.26" y2="103.34" xlink:href="#linear-gradient-3"/><linearGradient id="linear-gradient-38" x1="990.74" y1="-738.79" x2="986.55" y2="-714.33" gradientTransform="rotate(-4.47 11251.756 10408.839)" gradientUnits="userSpaceOnUse"><stop offset="0" stop-color="#dca87a"/><stop offset=".22" stop-color="#e2b283"/><stop offset=".66" stop-color="#ecc393"/><stop offset="1" stop-color="#f0c999"/></linearGradient><linearGradient id="linear-gradient-39" x1="-380.14" y1="719.65" x2="-379.49" y2="719.65" gradientTransform="matrix(15.80939 -49.18149 52.38512 14.17578 -31563.72 -28782.02)" gradientUnits="userSpaceOnUse"><stop offset="0" stop-color="#f7d9ab"/><stop offset=".52" stop-color="#f5d6a8"/><stop offset=".85" stop-color="#f2ce9f"/><stop offset="1" stop-color="#f0c999"/></linearGradient><linearGradient id="linear-gradient-40" x1="-383.86" y1="694.82" x2="-383.17" y2="694.82" gradientTransform="matrix(-13.52632 -46.34649 -52.99104 13.03215 31707.02 -26730.19)" xlink:href="#linear-gradient-39"/><linearGradient id="linear-gradient-41" x1="-336.02" y1="734.72" x2="-335.27" y2="734.72" gradientTransform="scale(12.98 -12.98) rotate(5.36 7774.23 4063.628)" gradientUnits="userSpaceOnUse"><stop offset="0" stop-color="#feddb3"/><stop offset="1" stop-color="#f7d9ab"/></linearGradient><linearGradient id="linear-gradient-42" x1="-336.19" y1="740.98" x2="-335.44" y2="740.98" gradientTransform="scale(12.79 -12.79) rotate(-.72 -59804.975 -26722.27)" xlink:href="#linear-gradient-41"/><linearGradient id="linear-gradient-43" x1="-399.03" y1="771.73" x2="-398.43" y2="771.73" gradientTransform="scale(10.34 -10.34) rotate(-88.81 -595.765 170.252)" xlink:href="#linear-gradient-5"/><linearGradient id="linear-gradient-44" x1="800.83" y1="-712.1" x2="824.44" y2="-712.1" gradientTransform="rotate(11.01 -3868.433 -3811.477)" xlink:href="#linear-gradient-5"/><linearGradient id="linear-gradient-45" x1="820.54" y1="-535.43" x2="820.72" y2="-572.14" gradientTransform="rotate(-2.23 19020.092 18326.283)" gradientUnits="userSpaceOnUse"><stop offset="0" stop-color="#dca87a"/><stop offset=".49" stop-color="#e4b587"/><stop offset="1" stop-color="#f0c999"/></linearGradient><linearGradient id="linear-gradient-46" x1="48.91" y1="75.14" x2="148.13" y2="75.14" gradientUnits="userSpaceOnUse"><stop offset="0" stop-color="#f7d9ab"/><stop offset=".48" stop-color="#f2ce9f"/><stop offset="1" stop-color="#f0c999"/></linearGradient><linearGradient id="linear-gradient-47" x1="98.19" y1="146.42" x2="95.82" y2="15.06" xlink:href="#linear-gradient"/><linearGradient id="linear-gradient-48" x1="61.81" y1="-64.92" x2="34.21" y2="-54.2" gradientTransform="scale(-1 1) rotate(-4.5 1954.298 1569.282)" xlink:href="#linear-gradient-45"/><linearGradient id="linear-gradient-49" x1="-484.6" y1="664.48" x2="-483.77" y2="664.48" gradientTransform="scale(12.55 -12.55) rotate(-13.83 -3009.12 -1694.517)" gradientUnits="userSpaceOnUse"><stop offset="0" stop-color="#fff"/><stop offset=".47" stop-color="#fcfcfc"/><stop offset=".77" stop-color="#f5f3f3"/><stop offset="1" stop-color="#ece7e8"/></linearGradient><linearGradient id="linear-gradient-50" x1="-254.54" y1="760.43" x2="-253.8" y2="760.43" gradientTransform="scale(-8.85 8.85) rotate(-7.86 -5585.352 -1410.312)" xlink:href="#linear-gradient-49"/><linearGradient id="linear-gradient-51" x1="86.62" y1="106.4" x2="66.55" y2="92.14" gradientUnits="userSpaceOnUse"><stop offset="0" stop-color="#ddddda"/><stop offset="1" stop-color="#a5a69d"/></linearGradient><linearGradient id="linear-gradient-52" x1="101.69" y1="107.97" x2="80.84" y2="96.82" gradientUnits="userSpaceOnUse"><stop offset="0" stop-color="#c6c6c0"/><stop offset="1" stop-color="#94958d"/></linearGradient><linearGradient id="linear-gradient-53" x1="-363.32" y1="700.69" x2="-362.58" y2="700.69" gradientTransform="rotate(-174.36 -8599.089 14881.209) scale(43.46)" gradientUnits="userSpaceOnUse"><stop offset="0" stop-color="#5a2a1f"/><stop offset=".29" stop-color="#492219"/><stop offset=".66" stop-color="#3d1c15"/><stop offset="1" stop-color="#391b14"/></linearGradient><linearGradient id="linear-gradient-54" x1="-150.07" y1="-81.6" x2="-177.67" y2="-70.89" gradientTransform="rotate(-4.5 2159.403 -3650.989)" xlink:href="#linear-gradient-45"/><linearGradient id="linear-gradient-55" x1="-468.15" y1="668.53" x2="-467.32" y2="668.53" gradientTransform="rotate(166.17 -2374.036 4604.908) scale(12.55)" xlink:href="#linear-gradient-49"/><linearGradient id="linear-gradient-56" x1="-278.34" y1="757.15" x2="-277.59" y2="757.15" gradientTransform="rotate(-7.86 -49225.263 -15466.736) scale(8.85)" xlink:href="#linear-gradient-49"/><linearGradient id="linear-gradient-57" x1="133.36" y1="102.98" x2="113.78" y2="90.74" xlink:href="#linear-gradient-51"/><linearGradient id="linear-gradient-58" x1="149.6" y1="96" x2="124.16" y2="92.98" xlink:href="#linear-gradient-52"/><linearGradient id="linear-gradient-59" x1="-368.19" y1="701.17" x2="-367.45" y2="701.17" gradientTransform="scale(43.46 -43.46) rotate(5.64 6956.101 4112.655)" xlink:href="#linear-gradient-53"/><linearGradient id="linear-gradient-60" x1="-48.05" y1="371.34" x2="-18.65" y2="371.34" gradientTransform="rotate(1.4 12052.514 6797.683)" gradientUnits="userSpaceOnUse"><stop offset="0" stop-color="#673024"/><stop offset=".34" stop-color="#52261c"/><stop offset=".68" stop-color="#462017"/><stop offset="1" stop-color="#421f16"/></linearGradient><linearGradient id="linear-gradient-61" x1="6925.4" y1="27.04" x2="6954.95" y2="27.04" gradientTransform="scale(-1 1) rotate(4.25 2745.046 -94416.825)" xlink:href="#linear-gradient-60"/><linearGradient id="linear-gradient-62" x1="98.92" y1="125.83" x2="98.85" y2="118.65" xlink:href="#linear-gradient-39"/><linearGradient id="linear-gradient-63" x1="42.66" y1="-17.5" x2="37.64" y2="-30.47" gradientTransform="rotate(20.32 -308.287 207.985)" xlink:href="#linear-gradient-41"/><linearGradient id="linear-gradient-64" x1="108.29" y1="117.37" x2="102.27" y2="120.34" xlink:href="#linear-gradient-45"/><linearGradient id="linear-gradient-65" x1="89.68" y1="117.69" x2="96.11" y2="120.31" xlink:href="#linear-gradient-45"/><linearGradient id="linear-gradient-66" y1="-738.79" x2="986.55" y2="-714.33" xlink:href="#linear-gradient-38"/><linearGradient id="linear-gradient-67" x1="800.83" y1="-712.1" x2="824.44" y2="-712.1" gradientTransform="rotate(11.01 -3868.433 -3811.477)" xlink:href="#linear-gradient-5"/><linearGradient id="linear-gradient-68" x1="161.58" y1="37.49" x2="32.37" y2="37.49" gradientUnits="userSpaceOnUse"><stop offset="0" stop-color="#4f251b"/><stop offset=".5" stop-color="#733930"/><stop offset="1" stop-color="#4f251b"/></linearGradient><linearGradient id="linear-gradient-69" x1="35.32" y1="51.91" x2="113.14" y2="51.91" gradientTransform="rotate(4.01 -116.634 66.86)" gradientUnits="userSpaceOnUse"><stop offset="0" stop-color="#4f251b"/><stop offset=".5" stop-color="#733930"/><stop offset="1" stop-color="#6c342a"/></linearGradient><linearGradient id="linear-gradient-70" x1="111.09" y1="66.9" x2="157.49" y2="66.9" gradientUnits="userSpaceOnUse"><stop offset="0" stop-color="#6c342a"/><stop offset=".5" stop-color="#733930"/><stop offset="1" stop-color="#4f251b"/></linearGradient><linearGradient id="linear-gradient-71" x1="28.43" y1="118.92" x2="61.94" y2="118.92" gradientUnits="userSpaceOnUse"><stop offset="0" stop-color="#733930"/><stop offset=".61" stop-color="#592a21"/><stop offset="1" stop-color="#4f251b"/></linearGradient><linearGradient id="linear-gradient-72" x1="102.79" y1="175.79" x2="97.13" y2="171.11" gradientTransform="rotate(-.05 -49317.895 20948.739)" xlink:href="#linear-gradient-39"/><linearGradient id="linear-gradient-73" x1="5814.57" y1="-12.84" x2="5805.57" y2="-17.4" gradientTransform="scale(-1 1) rotate(3.76 657.258 -90233.753)" xlink:href="#linear-gradient-39"/><linearGradient id="linear-gradient-74" x1="-392.94" y1="729.82" x2="-392.18" y2="729.82" gradientTransform="matrix(-33.02406 1.30906 1.3172 33.08379 -13829.64 -23497.96)" gradientUnits="userSpaceOnUse"><stop offset="0" stop-color="#e8d8d7"/><stop offset=".14" stop-color="#efe4e4"/><stop offset=".39" stop-color="#faf8f7"/><stop offset=".57" stop-color="#fff"/><stop offset="1" stop-color="#e8d2d1"/></linearGradient><linearGradient id="linear-gradient-75" x1="-390.27" y1="698.84" x2="-389.61" y2="698.84" gradientTransform="matrix(59.3 0 .81769 -55.63 22651.32 39011.26)" gradientUnits="userSpaceOnUse"><stop offset="0" stop-color="#e8d8d7"/><stop offset=".04" stop-color="#ebdddc"/><stop offset=".21" stop-color="#f6f0ef"/><stop offset=".38" stop-color="#fcfbfb"/><stop offset=".57" stop-color="#fff"/><stop offset=".69" stop-color="#fbf7f7"/><stop offset=".87" stop-color="#f1e3e3"/><stop offset="1" stop-color="#e8d2d1"/></linearGradient><linearGradient id="linear-gradient-76" x1="-391.46" y1="693.17" x2="-390.73" y2="693.17" gradientTransform="scale(39.48 -39.48) rotate(5.76 6728.54 4257.489)" gradientUnits="userSpaceOnUse"><stop offset="0" stop-color="#ed6d7f"/><stop offset=".03" stop-color="#ed6f80"/><stop offset=".25" stop-color="#ee7886"/><stop offset=".53" stop-color="#ef7c88"/><stop offset=".76" stop-color="#ee7885"/><stop offset="1" stop-color="#ed6c7e"/><stop offset="1" stop-color="#ed6c7e"/></linearGradient><linearGradient id="linear-gradient-77" x1="106.18" y1="208.26" x2="136.74" y2="208.34" gradientTransform="rotate(.65 6994.144 -1797.37)" gradientUnits="userSpaceOnUse"><stop offset="0" stop-color="#e8d8d7"/><stop offset=".05" stop-color="#eadcdb"/><stop offset=".31" stop-color="#f7efee"/><stop offset=".48" stop-color="#fcf7f6"/><stop offset="1" stop-color="#e8d2d1"/></linearGradient><linearGradient id="linear-gradient-78" x1="106.3" y1="171.96" x2="128.17" y2="171.96" gradientTransform="rotate(-.05 -49317.895 20948.739)" xlink:href="#linear-gradient-76"/><radialGradient id="radial-gradient" cx="-424.01" cy="720.33" fx="-424.01" fy="720.33" r=".75" gradientTransform="rotate(169 -4041.937 9263.782) scale(23.31 24.22)" gradientUnits="userSpaceOnUse"><stop offset="0" stop-color="#f8b68f"/><stop offset=".58" stop-color="#f7c89d"/><stop offset="1" stop-color="#f7d9ab"/></radialGradient><radialGradient id="radial-gradient-2" cx="-365.19" cy="735.86" fx="-365.19" fy="735.86" r=".75" gradientTransform="rotate(14.71 -65909.341 23751.261) scale(22.18 -21.56)" xlink:href="#radial-gradient"/><radialGradient id="radial-gradient-3" cx="-1010.82" cy="-54.21" fx="-1010.82" fy="-54.21" r="5.51" gradientTransform="matrix(1.09695 -.0819 .08041 1.077 1183.79 72.14)" gradientUnits="userSpaceOnUse"><stop offset="0" stop-color="#2a3a3b"/><stop offset="1" stop-color="#1c2727"/></radialGradient><radialGradient id="radial-gradient-4" cx="-817.8" cy="-39.59" fx="-817.8" fy="-39.59" r="5.51" gradientTransform="matrix(-1.09695 -.0819 -.08041 1.077 -773.59 72.14)" xlink:href="#radial-gradient-3"/><clipPath id="clippath"><path class="cls-68" d="M120.15 138.31s19.97 7.69 18.92 23.51c-.03.51-.74.65-.95.19-1.5-3.23-3.43-7.11-6.52-9.09-.58-.37-1.58-.94-2.3-.84-.87.12.67 1.41.86 1.58 1.48 1.32 2.69 3.11 3.77 4.77s1.94 3.63 2.27 5.66c.08.48-.55.76-.86.39-2.61-3.04-10.24-10.61-19.77-8.27-11.83 2.91-3.38-9.39-3.38-9.39l7.96-8.51Z"/></clipPath><clipPath id="clippath-1"><path class="cls-68" d="M158.63 78.85s-.02 15.91-4.23 25.62c-4.21 9.71-5.67 6.2-5.67 6.2s1.1-60.92-37.88-71.81c0 0-39.53 12.18-60.2 51.5 0 0 .73 16.68 0 18.86s-5.31-7.2-5.31-7.2 9.52 28.95 9.88 33.38c.23 2.79-.56 8.08-1.17 11.61-.05.3-.48.26-.49-.04-.24-7.53-2.74-16.86-9.18-23.19-7.5-7.38-5.86-20.12-5.86-20.12-11.35-42.83 9.92-65.72 9.92-65.72 37.51-43.01 75.76-12 75.76-12s37.51 5.22 34.22 51.44"/></clipPath><style>.cls-2{fill:#ddd}.cls-6{fill:#fff}.cls-8{fill:#391b14}.cls-10{fill:#971c29}.cls-21{fill:#f0c999}.cls-43{fill:#ed6d7a}.cls-49{fill:#dca87a}.cls-68{fill:none}</style></defs><path d="M120.15 138.31s19.97 7.69 18.92 23.51c-.03.51-.74.65-.95.19-1.5-3.23-3.43-7.11-6.52-9.09-.58-.37-1.58-.94-2.3-.84-.87.12.67 1.41.86 1.58 1.48 1.32 2.69 3.11 3.77 4.77s1.94 3.63 2.27 5.66c.08.48-.55.76-.86.39-2.61-3.04-10.24-10.61-19.77-8.27-11.83 2.91-3.38-9.39-3.38-9.39l7.96-8.51Z" style="fill:url(#linear-gradient)"/><path d="M73.48 144.8s-3.12 8.25 0 14.31c3.12 6.06 18.7.48 18.7.48v-11.73l-3.46-3.06H73.49Z" style="fill:url(#linear-gradient-2)"/><path d="M62.26 169.55c-.2-.98 1.84-6.92 3.52-7.42 31.91-9.57 63.29-3.52 67.39.2 4.1 3.71 4.69 20.88 4.69 20.88l-72.27 1.76-3.32-15.41Z" style="fill:#e1e1e1"/><path d="M65.19 161.93s8.45-4.69 34.57-4.95c13.96-.14 30.96 1.2 34.51 6.38l-2.74 5.86s3.13-12.76-31.25-11.72c-27.33.83-33.73 4.95-34.12 10.68l-.98-6.25Z" style="fill:url(#linear-gradient-3)"/><path d="M166.2 192.19c-3.61-.16-46.55-18.36-47.81-25.9-2.17-13.04.32-23.32.32-23.32l-35.17-11.83c1.62 12.97-4.1 31.61-8.01 39.42-2.49 4.97-14.83 12.63-29.38 16.92 2.64 2.65 33.7 49.61 53.94 65.51 1.7 1.69 62.58-46.47 66.1-60.8Z" style="fill:url(#linear-gradient-4)"/><path d="M110.44 183.98s26.74-2.01 32.08-1.13c5.34.87-24.6 9.02-32.08 1.13Z" style="fill:url(#linear-gradient-5)"/><path d="M89.64 183.98s-24.89 1.27-30.19 2.32c-5.31 1.06 22.99 5.81 30.19-2.32Z" style="fill:url(#linear-gradient-6)"/><path d="M102.06 194.04c2.19-2.42 4.85-9.87 4.85-9.87-1.67.84-5.7 5.65-6.82 5.13-1.12-.52-6.12-6.85-5.94-5.36.17 1.49 5.72 12.52 7.91 10.1Z" style="fill:url(#linear-gradient-7)"/><path d="M151.58 181.68c-18.52-3.58-30.5-13.42-31.26-14.05-1.3-1.08-2.26-6.36-2.26-11.64 0-2.29.18-5.58.39-8.56-.7.71-16.53 5.13-18.11 5.13-3.61 0-21.4-12.01-22.71-14.39l-.91-.04s1.03 24.48-3.69 33.94c-.54 1.07-14.04 9.91-24.5 12.9-4.79 2.74 17.45 39.76 20.01 51.67 3.34 15.5 66.9 2.09 66.9 2.09s23.15-55.69 16.13-57.05Zm-33.53-2.79c-5.82 11.46-5.82 36.92-16.55 61.66-13.64-37.47-8.91-43.29-22.01-62.57 1.32-3.03 1.64-5.64 2.18-9.91l32.17-8.04c.03 11.23 2.26 15.12 4.21 18.87Z" style="fill:url(#linear-gradient-8)"/><path d="m129.15 173.49.74 36.04-.75 8.18s6.01-3.87 6.91-4.49l-2.38-37.47-4.52-2.25Z" style="fill:url(#linear-gradient-9)"/><path d="M124.31 182.45s8.18-3.27 10.36-5.99c0 0 14.91 4.33 23.7 7.26 11.72 3.91 32.05 13.19 32.66 14.03 0 0-25.29 27.35-28.02 37.7-2.72 10.36-5.99 50.69-3.81 67.04 2.18 16.35 4.91 57.23 13.08 74.67 0 0-45.78 30.52-69.76 27.79-23.98-2.72-55.05-5.45-66.49-21.25 0 0 10.1-27.3 7.08-48.51-2.93-20.62-1.09-38.69-2.18-58.86s-2.72-48.51-7.08-54.5c-4.36-6-16.9-20.71-20.71-22.89 0 0 19.44-13.27 55.05-21.94 0 0 5.45 11.99 11.45 14.71 0 0 8.01 43.87 23.27 59.67 0 0 21.42-49.32 21.42-68.94Z" style="fill:#e9e9e9"/><path d="M32.57 208.03s11.33 31.25 20.7 48.05c7.57 13.56 30.05 19.66 47.27 19.14 20.5-.61 42.87-4.25 50.79-23.05 9.38-22.27 11.33-25.39 14.84-47.66l-43.36-.39-21.1 48.44-21.49-47.66-47.66 3.12Z" style="fill:url(#linear-gradient-10)"/><path d="M116.97 189.29s-1.84 10.92-2.62 15.61c-.78 4.69-6.41 10.03-13.82 24.48l4.19 32.55s11.33-20.71 15.63-32.81c4.3-12.11 6.77-35.94 6.77-37.5 0 0 11.07-10.16 15.24-12.11l-12.24-7.81-13.14 17.6Z" style="fill:url(#linear-gradient-11)"/><path d="m100.81 247.1 1.46-2.95s2.84 7.74 3.49 10.61c.65 2.86 2.61 14.58 2.87 20.28.23 5.08 1.4 13.84.52 28.45l-2.21-.13-6.12-56.26Z" style="fill:url(#linear-gradient-12)"/><path d="M79.84 183.42s6.64 11.72 7.03 14.85c.39 3.13 9.25 15.99 13.93 25.75 4.69 9.77 6.39 51.9 6.77 58.63 1.17 20.51-3.51 46.49-3.51 46.49l-12.11-5.08s5.08-21.48 3.52-33.2c-1.56-11.72 0-32.04-7.42-50.01s-14.84-48.83-14.84-48.83-6.64-5.47-8.2-7.42l8.2-7.03 6.64 5.86Z" style="fill:url(#linear-gradient-13)"/><path d="M161.88 229.91s-1.17 102.35 4.3 128.14c1.63 7.65-46.88 13.28-62.5 11.72-15.63-1.56-57.3-3.39-58.34-7.55-1.04-4.17-7.69-128.14-8.2-132.83 0 0 5.34 29.17 15.76 47.4 6.7 11.73 40.5 13.28 48.83 13.28s31.92 1.44 42.58-10.55c8.33-9.38 11.85-18.88 17.58-49.61Z" style="fill:url(#linear-gradient-14)"/><path d="M73.2 179.41c-2.33-1.13-9.9-6.54-9.9-6.54l-12.89 11.98 2.08 22.92 19.66-19.4s8.3-.04 12.24 3.67c0 0-4.16-9.21-11.2-12.62Z" style="fill:url(#linear-gradient-15)"/><path d="M129.32 174.43s-9.87 9-12.36 14.92c0 0 8.06-3.2 10.14-2.94l19.14 20.19 2.09-23.57-19.01-8.59Z" style="fill:url(#linear-gradient-16)"/><path d="M69.14 288.31c-4.06-33.29-11.05-65.12-12.99-98.13-1.59-5.59-2.24-9.4-2.24-9.4-35.75 8.71-40.32 10.75-40.32 10.75 3.83 2.19 14.95 25.37 19.33 31.39 4.38 6.02 6.02 34.48 7.12 54.73 1.09 20.25-.75 38.4 2.19 59.1 3.02 21.3-7.11 48.71-7.11 48.71 4.92 6.8 13.46 11.18 23.5 14.19 17.24-34.27 13.88-73.6 10.53-111.35Z" style="fill:url(#linear-gradient-17)"/><path d="M158.79 303.92c-2.19-16.42 1.1-56.92 3.83-67.32 2.74-10.4 27.86-45.44 27.86-45.44-1.34-.57-13.89-3.36-25.69-6.57-8.98-2.44-17.1-4.41-17.1-4.41-.87 1.09-2.18 9.02-5.83 18.53.4 11.29 1.49 22.97.75 34.04-6.7 54.43-9.48 108.86 4.81 160.37 13.79-7.08 24.5-14.22 24.5-14.22-8.21-17.51-10.95-58.56-13.14-74.98Z" style="fill:url(#linear-gradient-18)"/><path d="M13.62 191.53s16.27-8.24 43.68-12.47c0 0-23.75 8.66-43.68 12.47Z" style="fill:url(#linear-gradient-19)"/><path d="M13.59 191.53c7.2-4 22.38 26.15 22.77 34 .39 7.84 3.92 45.5 3.92 49.82s.78 22.75.78 36.87c0 0 24.19 9.42 49.69 8.24 25.5-1.18 29.29.78 29.29.78l.62 28.66s-30.54 4.12-58.68 6.91c-26.41 2.61-49.95-1.44-53.88-3.4-3.92-1.96-6.28-35.31-5.89-43.15.39-7.84 3.14-37.27 4.32-45.5 1.18-8.24-4.16-63.37 7.04-73.23Z" style="fill:url(#linear-gradient-20)"/><path d="M9.92 197.71c7.4-20.19 12.7 67.44 9.96 74.9-3.7 10.05-11.99-1.16-13.17-21.17-.66-11.21-1.1-41.96 3.21-53.73Z" style="fill:url(#linear-gradient-21)"/><path d="M141.33 177.61s38.29 8.7 49.23 13.48c0 0-36.13-4.75-49.23-13.48Z" style="fill:url(#linear-gradient-22)"/><path d="M40.87 283.98s-3.33-54.53-5.3-63.75c-1.63-7.67-5.1 47.47-5.1 47.47l10.4 16.28Z" style="fill:url(#linear-gradient-23)"/><path style="fill:url(#linear-gradient-24)" d="m63.67 193.07 5.09-3.45v20.55l13.37 96.06-4.48-1.12-13.98-112.04z"/><path style="fill:url(#linear-gradient-25)" d="m129.87 209.26-.36-24.37 7.82 3.27-11.06 116.28-3.14.89 6.74-96.07z"/><path d="m147.32 180.45 3.51 1.16s6.57 4.67 9.7 17.32l-8.06 4.03 9.86 3.81s-1.12 20.16-3.92 36.29-8.96 45.17-15.79 61.98c0 0-6.42 1.64-6.61-1.72-.11-2.02 11.31-122.87 11.31-122.87Z" style="fill:url(#linear-gradient-26)"/><path d="m49.76 182.01-2.26.59s-5.8 2.63-9.97 18.51l8.26 3.61-9.64 4.32s2.18 20.12 5.82 36.08c3.64 15.96 10.81 43.62 18.51 60.04 0 0 7 2.32 7.01-1.04 0-2.02-17.72-122.11-17.72-122.11Z" style="fill:url(#linear-gradient-27)"/><path d="m152.9 202.03 6.57-4.28s-2.9-13.52-8.09-16.62c-2.55-1.52-7.16-6.15-11.42-9.9-1.76 2.7-4.32 4.86-7.32 6.1.73 8.89 1.47 31.89 1.47 31.89s-7.11 94.33-8.55 106.49l13.06-.73s10.21-30.03 13.06-40.75c2.46-9.26 6.29-18.2 9.88-69.06l-8.67-3.14Z" style="fill:url(#linear-gradient-28)"/><path d="M65.88 177.66c-3.12-.95-5.85-2.86-7.84-5.36-4.01 3.93-8.28 8.61-10.67 10.22-5.02 3.37-7.2 17.02-7.2 17.02l6.79 3.93-8.49 3.59c6.27 50.6 10.78 59.27 13.51 68.45 3.28 11.01 15.19 40.01 15.19 40.01l13.08.04C78.18 303.49 66.1 209.67 66.1 209.67s-.48-23.14-.21-32Z" style="fill:url(#linear-gradient-29)"/><path d="M158.75 246.32s2.75-20.01 9.02-25.89c6.28-5.88 13.93-31.39 22.78-29.34 0 0 8.51 11.2 5.86 65.83-.96 19.73 5.49 41.19 1.96 69.44-2.57 20.54-1.57 21.58-14.52 22.36-5.15.31-39.22-1.93-97.47-14.93 0 0-1.79-16.8.18-29.79 0 0 52.18-1.17 72.18-.78 0 0-3.53-16.09-1.96-23.54 1.57-7.45 1.96-33.35 1.96-33.35Z" style="fill:url(#linear-gradient-30)"/><path d="M161.1 229.45s-1.76 11.84-2.55 19.42c-1.91 18.47-1.24 31.19-2.42 38.38 0 0 8.11-9.15 8.37-11.51.26-2.35-.26-76.89-3.4-46.29Z" style="fill:url(#linear-gradient-31)"/><path d="M192.73 196.23c1.92 5.51 5.54 24.99 3.68 62.45-1.17 23.59-12.16 25.3-13.34 22.16-1.18-3.14 3.38-102.66 9.66-84.62Z" style="fill:url(#linear-gradient-32)"/><path d="m50.03 201.62.36 8.19s14.7-16.93 15.43-18.02l.22-6.17-16.01 16.01Z" style="fill:url(#linear-gradient-33)"/><path d="m148.42 198.4-.39 8.49s-15.71-17.53-16.49-18.66l-.35-6.42 17.23 16.59Z" style="fill:url(#linear-gradient-34)"/><path d="M84.41 192.05s-8.87-10.06-10.43-10.06c-1.56 0-7.68 5.99-7.68 5.99s-7.68 7.03-17.32 19.79c0 0 1.72-28.61 3.59-31.61 9.11-14.58 12.62-14.23 12.62-14.23s1.24 8.86 9.82 15.16c2.69 1.97 5.32 6.58 9.4 14.96Z" style="fill:url(#linear-gradient-35)"/><g style="clip-path:url(#clippath)"><path style="fill:url(#linear-gradient-36)" d="m119.38 141.11 18.48 10.76-7.09-10.76-10.81-3.31-.58 3.31z"/></g><path d="M116.97 189.35s8.32-8.41 9.88-8.41 5.99 4.69 5.99 4.69 12.76 14.85 16.41 19.53c0 0-3.43-26.05-5.38-29.01-8.14-12.41-11.03-14.23-11.03-14.23s-.78 9.12-7.56 14.85c-2.54 2.15-7.8 10.23-8.32 12.57Z" style="fill:url(#linear-gradient-37)"/><path class="cls-21" d="M148.61 98.74c-2.41 13.25-3.43 23.38-3.43 23.38 8.59-2.61 15.4-27.21 6.71-27.22-1.52 0-3.29 3.85-3.29 3.85Z"/><path d="M149.27 115.52s2.21-2.82 1.26-7.77c-2.25-11.67 5.47-13.39 4.08-5.09 0 0-1.25-3.69-2.17-2.44-1.14 1.54 1.39 2.02.4 8.3-.52 3.26-3.56 6.99-3.56 6.99Z" style="fill:url(#linear-gradient-38)"/><path class="cls-21" d="M50.08 96.7c1.69 13.36 2.14 23.53 2.14 23.53-8.43-3.07-13.88-28.02-5.2-27.55 1.51.08 3.06 4.02 3.06 4.02Z"/><path class="cls-49" d="M49.87 113.66s-2.5-2.67-1.69-7.89c1.9-12.32-6.46-13.21-4.6-4.79 0 0 1.18-3.96 2.23-2.77 1.29 1.47-1.4 2.26-.06 8.63.7 3.31 4.13 6.82 4.13 6.82Z"/><path d="M107.42 32.59c-29.48-5.18-50.74 20.56-56.55 51.94-3.26 17.61-2.19 33.36 7.14 46.41 3.79 5.29 8.5 7.87 13.98 12.07 3.48 2.66 8.91 8.35 12.62 11.13 3.39 2.53 7.07 4.57 11.65 4.78 13.89.63 23.1-9.64 27.13-13.33 14.15-12.97 27.06-17.72 24.57-54.22-1.96-28.67-21.2-57.98-40.54-58.78Z" style="fill:#f7d9ab"/><path d="M106.02 106.59c1.37-14.48.83-26.88 17.31-29.67 15.39-2.6 19.7 4.41 21.09 6.54 3.61 5.54 3.54 21.58 3.54 21.58s-15.47 12.69-41.94 1.55Z" style="fill:url(#linear-gradient-39)"/><path d="M115.24 115.01c1.62 8.3 6.98 15.46 14.3 18.42 9.58 3.88 16.68-8.38 18.48-23.62.99-8.38-11.15-14.69-18.9-13.19-7.75 1.51-15.48 10.08-13.88 18.38Z" style="fill:url(#radial-gradient)"/><path d="M93.22 107.89c-1.77-11.5 1.56-29.01-20.17-30.73-6.78-.54-12.28 1.29-15.81 3.88-8.22 6.03-3.59 22.17-3.59 22.17s12.61 15 39.57 4.68Z" style="fill:url(#linear-gradient-40)"/><path d="M81.75 114.86c-1.85 7.07-7.13 19.68-14.35 18.54-9.31-1.47-16.28-6.62-16.47-23.93-.08-7.33 11.14-12.51 18.2-10.65 7.07 1.85 14.48 8.96 12.61 16.04Z" style="fill:url(#radial-gradient-2)"/><path d="M138.13 104.41c-2.64.64-4.49 2.32-4.15 3.76.35 1.43 2.76 2.09 5.4 1.45 2.63-.64 4.49-2.31 4.15-3.76-.35-1.43-2.77-2.08-5.4-1.45Z" style="fill:url(#linear-gradient-41)"/><path d="M59.25 104.07c-2.63-.53-5 .21-5.29 1.64-.29 1.44 1.61 3.03 4.24 3.56 2.63.53 5-.2 5.3-1.64.29-1.44-1.61-3.03-4.24-3.57Z" style="fill:url(#linear-gradient-42)"/><path d="M99.05 145.91c-3.67-.22-6.77.63-6.92 1.9-.16 1.28 2.68 2.5 6.34 2.72 3.66.22 6.76-.63 6.92-1.91.16-1.28-2.68-2.5-6.34-2.72Z" style="fill:url(#linear-gradient-43)"/><path d="M148.45 105.58s-1.98-6.59-6.56-8.72c10.49 15.24-.74 31.85-9.39 39.47-9.55 8.42-13.49 13.21-15.03 14.63 1.38-1.18 14.09-12.07 17.72-14.57 3.36-2.32 16.33-14.88 13.26-30.81Z" style="fill:url(#linear-gradient-44)"/><path class="cls-21" d="M53.43 99.72s-5.83 24.11 12.8 37.8c10.26 7.54 13.28 12.16 15.88 14.57 0 0-11.59-9.73-18.57-14.45-3.38-2.29-20.12-13.48-10.11-37.92Z"/><path d="M83.98 153.65s11.35 15.24 30.48-.41c0 0-15.36 11.76-30.48.41Z" style="fill:url(#linear-gradient-45)"/><path d="M143.62 70.56c-5.56-16.39-16.39-33.84-31.71-36.97 0 0-31.11-8.67-51.58 23.39-10.46 16.38-14.44 44.71-9.01 60.78 0 0 2.55-14.25 5.46-21.83 0 0 13.31-18.94 22.26-27.43 17.86-16.94 28.91-24.96 36.68-26.26.33.04 11.18 1.68 21.87 25.37 3.83 11.33 6.41 24.2 10.34 37.54 0 0 1.56-17.27-4.32-34.6Zm-24.68-28.45-3.17.14c1.12-.18 2.18-.23 3.17-.14Zm.03 0c3.62.34 6.48 2.45 9.09 6.02.42.58.82 1.19 1.22 1.79-3-3.09-6.36-5.58-10.31-7.81Z" style="fill:url(#linear-gradient-46)"/><path d="M158.63 78.85s-.02 15.91-4.23 25.62c-4.21 9.71-5.67 6.2-5.67 6.2s1.1-60.92-37.88-71.81c0 0-39.53 12.18-60.2 51.5 0 0 .73 16.68 0 18.86s-5.31-7.2-5.31-7.2 9.52 28.95 9.88 33.38c.23 2.79-.56 8.08-1.17 11.61-.05.3-.48.26-.49-.04-.24-7.53-2.74-16.86-9.18-23.19-7.5-7.38-5.86-20.12-5.86-20.12-11.35-42.83 9.92-65.72 9.92-65.72 37.51-43.01 75.76-12 75.76-12s37.51 5.22 34.22 51.44" style="fill:url(#linear-gradient-47)"/><path d="M69.93 84.67c14.83 0 17.54 8.88 17.85 15.42-1.12.25-2.3.47-4.51 1.15-2.98.92-6.46 2.39-11.5 2.34-3.96-.03-12.82-2.06-12.95-10.58-.1-6.74 7.52-8.04 11.1-8.34Z" style="fill:url(#linear-gradient-48)"/><path d="M78.72 89.82c1.49 1.39 3.25 3.9 3.37 6.2.13 2.66-.88 4.12-2.63 5.73 2.25-.61 4.41-1.72 7.65-2.18 0 0-3.14-6.66-8.39-9.76Z" style="fill:url(#linear-gradient-49)"/><path class="cls-2" d="M81.95 95.3c2.58 1.54 4.22 3.38 5.15 4.29 0 0-3.15-6.46-7.95-8.79 1.46 1.12 2.48 2.71 2.8 4.51Z"/><path d="M67.25 96.79c-.19-3.83 2.1-7.21 5.36-8.31-3.65.33-8.09 2.19-13.44 6.63 0 0 3.05 6.39 11.71 7.52-2.03-1.34-3.48-3.07-3.63-5.84Z" style="fill:url(#linear-gradient-50)"/><path d="M81.97 95.11c.06.33.09.57.12.92.19 2.58-.8 4.18-2.63 5.73-.61.3-6.04 1.4-9.36.85-2.12-1.31-3.66-2.98-3.81-5.66-.08-1.4.2-2.73.78-3.91 4.21-1.45 9.76-1.42 14.91 2.06Z" style="fill:url(#linear-gradient-51)"/><path class="cls-2" d="M70.11 90.12c-3.85.72-7.44 2.53-9.55 5.21l1.03 1.88s1.99-1.64 5.03-2.91c.58-1.78 1.84-3.26 3.5-4.19Z"/><path d="M74.64 92.92c3.01.28 5.46 1.24 7.36 2.37-.29-1.82-1.39-3.39-2.85-4.51-.66-.32-1.35-.57-2.06-.71-2.23-.43-4.65-.4-6.98.03-1.66.92-3.02 2.39-3.54 4.21 2.24-.93 5.07-1.68 8.07-1.4Z" style="fill:url(#linear-gradient-52)"/><path d="M79.33 95.27c.22 2.78-1.96 5.21-4.84 5.43-2.88.21-5.39-1.87-5.6-4.65-.21-2.78 1.96-5.22 4.84-5.43 2.88-.22 5.39 1.87 5.59 4.65Z" style="fill:url(#radial-gradient-3)"/><path class="cls-6" d="M75.93 95.42c-.34.7-1.15.99-1.83.65-.67-.34-.93-1.19-.59-1.89.34-.7 1.16-.99 1.83-.65.67.34.93 1.19.59 1.88ZM80.74 97.91c-.46.91-1.58 1.28-2.51.82-.93-.46-1.31-1.57-.85-2.48a1.88 1.88 0 0 1 2.51-.82c.93.46 1.31 1.57.85 2.48Z"/><path d="M59.15 96.32c-.08-.28-.12-.47-.13-.55-3.81-1.32-3.16-6.54-3.2-6.73.09.04 4.17 2.06 8.79-.26C77.8 83.46 84.83 90.7 87.1 99.59c0 0-5.31-8.18-12.3-8.57-4.83-.27-9.74 1.08-13.82 4.53 2.62 4.06 5.06 5.24 10.08 7.18-3.68-.12-7.24-1.91-9.46-3.52-3.42-2.48-4.97-1.62-4.98-1.65.45-.46.88-1.36 2.52-1.25Z" style="fill:url(#linear-gradient-53)"/><path class="cls-49" d="M84.81 90.57s-2.25-3.48-7.09-5.14c-4.83-1.65-9.66-.9-13.34.39 0 0 7.8-1.47 13.05.54 5.25 2.01 7.38 4.21 7.38 4.21Z"/><path class="cls-8" d="M87.11 99.58s-5.27-7.9-11.71-8.52c-6.45-.61-11.6 2.27-14.41 4.48 0 0 3.39-6.42 14.77-5.27 8.49.86 11.35 9.3 11.35 9.3Z"/><path d="M127.76 84.67c-14.83 0-17.54 8.88-17.85 15.42 1.12.25 2.3.47 4.51 1.15 2.98.92 6.47 2.39 11.5 2.34 3.96-.03 12.82-2.06 12.95-10.58.1-6.74-7.52-8.04-11.1-8.34Z" style="fill:url(#linear-gradient-54)"/><path d="M118.97 89.82c-1.49 1.39-3.25 3.9-3.37 6.2-.13 2.66.88 4.12 2.63 5.73-2.25-.61-4.41-1.72-7.65-2.18 0 0 3.14-6.66 8.39-9.76Z" style="fill:url(#linear-gradient-55)"/><path class="cls-2" d="M115.74 95.3c-2.58 1.54-4.22 3.38-5.15 4.29 0 0 3.15-6.46 7.95-8.79-1.46 1.12-2.48 2.71-2.8 4.51Z"/><path d="M130.45 96.79c.19-3.83-2.1-7.21-5.36-8.31 3.65.33 8.09 2.19 13.44 6.63 0 0-3.05 6.39-11.71 7.52 2.03-1.34 3.48-3.07 3.63-5.84Z" style="fill:url(#linear-gradient-56)"/><path d="M115.72 95.11c-.06.33-.09.57-.12.92-.19 2.58.8 4.18 2.63 5.73.61.3 6.04 1.4 9.36.85 2.12-1.31 3.66-2.98 3.81-5.66.08-1.4-.2-2.73-.78-3.91-4.21-1.45-9.76-1.42-14.91 2.06Z" style="fill:url(#linear-gradient-57)"/><path class="cls-2" d="M127.58 90.12c3.85.72 7.44 2.53 9.55 5.21l-1.03 1.88s-1.99-1.64-5.03-2.91c-.58-1.78-1.84-3.26-3.5-4.19Z"/><path d="M123.05 92.92c-3.01.28-5.46 1.24-7.36 2.37.29-1.82 1.39-3.39 2.85-4.51.66-.32 1.35-.57 2.06-.71 2.23-.43 4.65-.4 6.98.03 1.66.92 3.02 2.39 3.54 4.21-2.24-.93-5.07-1.68-8.07-1.4Z" style="fill:url(#linear-gradient-58)"/><path d="M118.37 95.24c-.22 2.78 1.96 5.21 4.84 5.43 2.88.21 5.39-1.87 5.6-4.65.21-2.78-1.96-5.22-4.84-5.43-2.88-.22-5.39 1.87-5.59 4.65Z" style="fill:url(#radial-gradient-4)"/><path class="cls-6" d="M125.05 95.31c.4-.67.2-1.51-.45-1.89-.65-.38-1.5-.13-1.91.53-.4.67-.2 1.51.45 1.88.65.37 1.5.13 1.9-.53ZM129.75 97.98c.51-.88.21-2.03-.68-2.56-.89-.52-2.03-.24-2.54.65-.51.89-.21 2.03.68 2.55.89.53 2.03.24 2.54-.64Z"/><path d="M138.55 96.32c.08-.28.12-.47.13-.55 3.81-1.32 3.16-6.54 3.2-6.73-.09.04-4.17 2.06-8.79-.26-13.19-5.32-20.22 1.92-22.49 10.81 0 0 5.31-8.18 12.3-8.57 4.83-.27 9.74 1.08 13.82 4.53-2.62 4.06-5.06 5.24-10.08 7.18 3.68-.12 7.24-1.91 9.46-3.52 3.42-2.48 4.97-1.62 4.98-1.65-.45-.46-.88-1.36-2.52-1.25Z" style="fill:url(#linear-gradient-59)"/><path class="cls-49" d="M112.88 90.57s2.25-3.48 7.09-5.14c4.83-1.65 9.66-.9 13.34.39 0 0-7.8-1.47-13.05.54-5.25 2.01-7.38 4.21-7.38 4.21Z"/><path class="cls-8" d="M110.59 99.58s5.27-7.9 11.71-8.52c6.45-.61 11.6 2.27 14.41 4.48 0 0-3.39-6.42-14.77-5.27-8.49.86-11.35 9.3-11.35 9.3Z"/><path d="M116.89 76.62c-3.55 1.68-6.1 6.36-3.01 5.34 3.09-1.02 14.49-5.36 16.98-5.42 3.87-.09 9.59 1.93 11.1 2.86 0 0-6.92-5.36-11.19-5.79-4.25-.43-11.96 2.1-13.88 3Z" style="fill:url(#linear-gradient-60)"/><path d="M81.64 76.65c3.64 1.5 5.8 5.75 2.67 4.89-3.13-.87-14.74-4.59-17.22-4.66-3.53-.1-9.48 2.49-10.94 3.5 0 0 6.65-5.79 10.89-6.43 4.22-.64 12.66 1.9 14.61 2.71Z" style="fill:url(#linear-gradient-61)"/><path d="M89.82 118.85s7.61 5.07 9.3 4.85c1.7-.22 8.75-4.84 8.75-4.84H89.81Z" style="fill:url(#linear-gradient-62)"/><path d="M98.88 111.31c-4.79.13-6.14 1.35-5.79 2.62.86 3.11 2.89 3.69 5.88 3.68 3.15 0 5.61-.71 6.09-4.06.14-.99-1.38-2.39-6.18-2.25Z" style="fill:url(#linear-gradient-63)"/><path d="M102.1 119.66s5-3.74 5.96-2.77c2.84 2.9-5.96 2.77-5.96 2.77Z" style="fill:url(#linear-gradient-64)"/><path d="M96.19 119.65s-5.3-3.25-6.33-2.37c-2.94 2.5 6.33 2.37 6.33 2.37Z" style="fill:url(#linear-gradient-65)"/><path class="cls-21" d="M89.82 118.85s-.51-1.28 1.49-1.15c1.45.09 2.6 3.17 7.75 3.02 5.5-.16 6.25-2.92 7.66-3 1.29-.06 1.15 1.13 1.15 1.13s2.61-1.35 1.62-2.55c-1.79-2.19-2.34 2.31-10.55 2.2-8.92-.13-9.93-4.49-11.15-1.69-.5 1.15.45 1.49 2.02 2.04ZM148.61 98.74c-2.41 13.25-3.43 23.38-3.43 23.38 8.59-2.61 15.4-27.21 6.71-27.22-1.52 0-3.29 3.85-3.29 3.85Z"/><path d="M149.27 115.52s2.21-2.82 1.26-7.77c-2.25-11.67 5.47-13.39 4.08-5.09 0 0-1.25-3.69-2.17-2.44-1.14 1.54 1.39 2.02.4 8.3-.52 3.26-3.56 6.99-3.56 6.99Z" style="fill:url(#linear-gradient-66)"/><path d="M148.45 105.58s-1.98-6.59-6.56-8.72c10.49 15.24-.74 31.85-9.39 39.47-9.55 8.42-13.49 13.21-15.03 14.63 1.38-1.18 14.09-12.07 17.72-14.57 3.36-2.32 16.33-14.88 13.26-30.81Z" style="fill:url(#linear-gradient-67)"/><g style="clip-path:url(#clippath-1)"><path d="M115.03 29.54S82 4.38 32.76 64.28l-.39-18.72 45.64-33.6 38.41-3.73 13.25 10.72 8.91 7.95 12.16 13.61 10.84 26.25s-14.74-38.39-46.55-37.21Z" style="fill:url(#linear-gradient-68)"/><path d="M115.46 41.94s-15.19-11.52-47.23 10.8c-32.04 22.31-33.82 44.1-33.82 44.1s-4.58-28.03 20.63-46.41c25.22-18.38 48.47-24.94 60.41-8.49Z" style="fill:url(#linear-gradient-69)"/><path d="M111.09 40.12s17.67 0 27.25 11.81c10.04 12.38 19.14 45.63 19.14 45.63s-2.34-44.45-23.2-56.12c-19.45-10.88-23.2-1.32-23.2-1.32Z" style="fill:url(#linear-gradient-70)"/><path d="M56.36 74.63s-6.41 8.53-8.07 17.25-1.65 16.83-1.65 16.83l9.72 24.73 5.58 10.87-15.36 18.91-8.27-8.95-9.87-41.2 7.86-7.77s9.1-26.23 20.06-30.67Z" style="fill:url(#linear-gradient-71)"/></g><path class="cls-21" d="M50.35 96.32c1.69 13.36 2.14 23.53 2.14 23.53-8.43-3.07-13.88-28.02-5.2-27.55 1.51.08 3.06 4.02 3.06 4.02Z"/><path class="cls-49" d="M50.13 113.28s-2.5-2.67-1.69-7.89c1.9-12.32-6.46-13.21-4.6-4.79 0 0 1.18-3.96 2.23-2.77 1.29 1.47-1.4 2.26-.06 8.63.7 3.31 4.13 6.82 4.13 6.82Z"/><path class="cls-68" d="M89.98 89.77c-2.5-2.03-6.55-2.97-9.69-3.13-7.16-.38-16.88-.14-20.29-.04-1.32.04-2.62.36-3.77 1-2.76 1.54-2.53 4.1-2.4 6.89.12 2.63.47 5.59 2.23 7.68 2.47 2.94 17.3 4 17.3 4 3.06.2 6.21.21 9.26-.16 1.21-.15 2.51-.32 3.59-.93 1.12-.64 1.98-1.68 2.74-2.68 2.14-2.84 2.16-5.66 2.23-9.1.03-1.46.03-2.55-1.17-3.53ZM141.88 87.6c-1.15-.64-2.46-.96-3.77-1-3.41-.1-13.13-.34-20.29.04-3.14.17-7.2 1.1-9.69 3.13-1.2.98-1.2 2.07-1.17 3.53.07 3.43.08 6.26 2.23 9.1.76 1 1.62 2.04 2.74 2.68 1.08.62 2.37.78 3.59.93 3.05.37 6.19.36 9.26.16 0 0 14.83-1.06 17.3-4 1.76-2.09 2.11-5.05 2.23-7.68.12-2.79.36-5.35-2.4-6.89Z"/><path d="M148.53 87.71c-.49-1.42-1.36-2.55-2.26-3.72l-7.1.35c-4.11.2-8.23.32-12.35.32-3.53 0-6.59.08-9.1.21-2.35.13-4.67.62-6.85 1.51-1.1.45-2.15.99-3.16 1.61-.7.43-1.41 1.14-2.15 1.42-1.75.65-3.08.87-4.94.8h-3.14c-1.86.07-3.19-.15-4.94-.8-.73-.27-1.44-.98-2.15-1.42-1.01-.62-2.07-1.17-3.16-1.61-2.18-.89-4.5-1.38-6.85-1.51-2.52-.13-5.58-.21-9.1-.21-4.12 0-8.24-.12-12.35-.32l-7.1-.35c-.9 1.17-1.77 2.3-2.26 3.72-.38 1.1-.55 2.25-.77 3.4 1.58 1.23 3.26 2.72 3.32 3.53.22 2.81.84 6.6 2.58 8.66 2.74 3.26 14.87 4.37 18.54 4.63.07 0 1.79.11 4.05.11 7.64 0 9.54-1.22 10.17-1.62 1.42-.91 2.45-2.27 3.32-3.69.79-1.3 1.57-2.62 2.13-4.04.5-1.28.93-2.46 2.02-3.38 1.02-.85 2.46-1.73 4.13-1.8 1.67.08 3.12.95 4.13 1.8 1.09.92 1.52 2.1 2.02 3.38.56 1.42 1.34 2.74 2.13 4.04.86 1.42 1.9 2.78 3.32 3.69.63.4 2.53 1.62 10.17 1.62 2.25 0 3.98-.11 4.05-.11 3.67-.26 15.8-1.37 18.54-4.63 1.74-2.07 2.36-5.85 2.58-8.66.06-.81 1.74-2.3 3.32-3.53-.22-1.14-.39-2.3-.77-3.4Zm-57.38 5.58c-.07 3.43-.08 6.26-2.23 9.1-.76 1-1.62 2.04-2.74 2.68-1.08.62-2.37.78-3.59.93-3.05.37-6.2.36-9.26.16 0 0-14.83-1.06-17.3-4-1.76-2.09-2.11-5.05-2.23-7.68-.12-2.79-.36-5.35 2.4-6.89 1.15-.64 2.46-.96 3.77-1 3.41-.1 13.13-.34 20.29.04 3.14.17 7.2 1.1 9.69 3.13 1.2.98 1.2 2.07 1.17 3.53Zm53.13 1.19c-.12 2.63-.47 5.59-2.23 7.68-2.47 2.94-17.3 4-17.3 4-3.06.2-6.21.21-9.26-.16-1.21-.15-2.51-.32-3.59-.93-1.12-.64-1.98-1.68-2.74-2.68-2.14-2.84-2.16-5.66-2.23-9.1-.03-1.46-.03-2.55 1.17-3.53 2.5-2.03 6.55-2.97 9.69-3.13 7.16-.38 16.88-.14 20.29-.04 1.32.04 2.62.36 3.77 1 2.76 1.54 2.53 4.1 2.4 6.89Z" style="fill:#313131"/><path d="M77.6 127.85c-1.13-.39-1.75-1.31-1.27-2.17.43-.77 5.17 2.65 6.98 5.31-2.47-1.86-4.57-2.75-5.7-3.14Z" style="fill:url(#linear-gradient-72)"/><path d="M119.95 127.88c1.11-.45 1.68-1.4 1.15-2.23-.47-.75-5.01 2.92-6.68 5.67 2.36-1.99 4.41-2.99 5.52-3.44Z" style="fill:url(#linear-gradient-73)"/><path class="cls-21" d="M87.67 136.85c2.1 4.6 13.82 11.09 22.63.1 0 0-12.41 5.41-22.63-.1Z"/><path class="cls-10" d="M97.7 129.11c-11.1-.24-17.55-1.97-20.17-2.54v.02c.08.11.12.17.19.28 1.38.63 2.98 1.06 5.01 2.54 1.39 1.03 2.71 7.86 16.51 7.84 7.54-.02 12.12-2.55 16.61-7.67 1.4-1.6 2.74-2.09 3.84-2.72.03-.13.09-.18.12-.31-3.03.83-9.11 2.82-22.11 2.56Z"/><path d="M110.12 130.44c-7.76 1.68-18.3 1.37-22.11.63-2.21-1-2.02 1.82-2.02 1.82 4.81 5.02 8.71 4.12 12.62 4.25 3.85.14 9.61-1.37 13.06-4.38.34-.92-.47-2.56-1.55-2.33Z" style="fill:url(#linear-gradient-74)"/><path d="M113.58 127.6s-2.54 1.21-8.47 1.78c-5.99.58-8.51.2-13.88-.1-2.47-.14-3.97-.52-7.06-1.28 0 0 .57.71.92 1.55.46 1.09 2.76 4.78 13.88 4.74 8.36-.03 12.79-2.97 13.4-4.77.37-1.08 1.15-1.56 1.22-1.93Z" style="fill:url(#linear-gradient-75)"/><path class="cls-43" d="M99.99 136.75c-16.97-.17-11.01-7.05-22.27-9.88.08.02 2.59 1.4 5.53 4.87 3.25 3.82 6.02 9.82 15.53 9.82 8.58 0 13.37-6.21 16.14-9.62 3.17-3.9 4.75-5.06 4.82-5.08-9.24 2.44-6.25 9.58-19.74 9.89Z"/><path d="M89.96 135.1c-2.6-1.36-4.9-4.23-5.39-4.59.61.84 4.2 9.86 13.76 9.74 11.05-.14 13.11-7.54 15.1-9.73-.94.98-3.31 3.6-6.2 4.57-1.9.64-5.11 1.39-8.68 1.52-2.27.08-6.08-.42-8.6-1.5Z" style="fill:url(#linear-gradient-76)"/><path d="M106.9 136.19c.14.39-.93 1.67-3.19 2.28-2.9.79-5.19-.01-5.34-.4-.14-.39 3.7-.63 4.82-1 1.12-.38 3.56-1.26 3.7-.87Z" style="fill:#f298a2"/><path class="cls-10" d="M77.89 127.53c.67.31 1.19-.19 3.85.8 0 0-4.51-2.4-4.81-2.27-.21.09-.02 1.01.97 1.47ZM119.73 127.54c-.67.32-1.41-.18-3.74.84 0 0 4.34-2.57 4.71-2.32.19.13.02 1.01-.97 1.48Z"/><path d="m84.39 128.27.71 1.33s4.79 2.63 14.66 2.68c7.13.04 12.55-2.63 12.55-2.63l.57-1.31-28.49-.07Z" style="fill:url(#linear-gradient-77)"/><path class="cls-43" d="M105.16 127.49c-3.3-.29-3.67.25-6.04.25-2.31 0-4.16-.69-7.02-.46-3.72.3-8.27.54-13.66-.62 0 0 2 1.25 11.93 3.26 2.95.59 5.57 1.19 8.62 1.14 3.64.05 6.67-.68 9.49-1.14 4.79-.77 10.46-3.1 10.49-3.2-2.56.7-10.17 1.08-13.81.77Z"/><path d="M88.15 128.31c.1-.35 5.04-.74 5.85-.73.81 0 3.51.51 4.49.52.97 0 3.95-.14 4.77-.32.81-.18 6.81.41 6.76.82-.06.42-8.78 1.39-9.81 1.47-1.03.08-12.34-.75-12.05-1.77Z" style="fill:url(#linear-gradient-78)"/></svg>